<?xml version="1.0" encoding="UTF-8" standalone="no"?>
<!DOCTYPE svg PUBLIC "-//W3C//DTD SVG 1.1//EN" "http://www.w3.org/Graphics/SVG/1.1/DTD/svg11.dtd">
<svg version="1.1" xmlns="http://www.w3.org/2000/svg" xmlns:xlink="http://www.w3.org/1999/xlink" preserveAspectRatio="xMidYMid meet" viewBox="0 0 591 660" width="591" height="660"><defs><path d="M446.53 347.98C445.39 325.47 426.95 307.39 404.46 307.39C404.31 307.39 403.11 307.39 402.96 307.39C379.74 308.16 361.64 327.69 362.38 350.96C363.12 362.76 367.94 372.36 374.54 379.36C348.73 429.55 310 466.45 251.31 497.46C211.83 518.09 170.14 525.88 129.55 520.34C95.62 515.56 69.07 500.39 52.82 476.05C28.49 439.13 26.27 399.31 46.54 359.46C61.34 330.67 83.45 309.64 98.23 299.29C94.54 289.71 90.1 273.48 87.89 261.31C-21.36 339.56 -10.25 446.55 22.94 497.11C47.67 534 98.23 557.6 153.57 557.6C168.32 557.6 183.83 556.52 198.95 552.82C294.9 534.37 367.57 476.82 409.27 391.94C409.29 391.89 409.4 391.64 409.61 391.18C434.94 377.39 447.25 362.99 446.53 347.98ZM304.06 194.86C302.8 194.86 292.76 194.86 291.5 194.86C285.27 181.22 270.89 172.72 254.63 172.72C254.52 172.72 253.64 172.72 253.53 172.72C230.3 172.72 212.2 192.67 212.97 215.9C213.7 238.01 232.52 256.49 255.03 256.49C255.21 256.49 256.67 256.49 256.85 256.49C273.47 255.75 287.86 245.4 293.74 230.65C295.11 230.65 306.04 230.65 307.41 230.65C364.27 230.65 418.11 247.25 467.19 279.71C504.79 304.44 531.76 336.9 546.88 375.67C560.13 407.39 559.42 438.4 545.77 464.26C524.74 504.82 489.3 526.25 442.46 526.25C412.94 526.25 384.17 517.01 369.4 510.39C360.56 517.72 345.78 529.92 335.07 537.3C367.52 552.03 400.38 560.53 432.1 560.53C504.06 560.53 557.52 519.97 577.84 480.83C599.95 436.55 598.13 362.02 541.66 298.18C541.64 298.23 541.52 298.48 541.32 298.92C447.11 229.55 368.03 194.86 304.06 194.86ZM201.88 445.02C202.03 445.02 203.21 445.02 203.36 445.02C226.98 444.28 245.05 424.75 243.95 401.48C243.95 379.33 224.76 360.91 202.25 360.91C202.1 360.91 200.9 360.91 200.75 360.91C199.27 360.91 197.08 360.91 195.21 361.63C164.6 309.96 151.67 254.59 156.5 194.86C159.43 149.84 174.2 110.71 200.75 78.25C222.89 50.56 264.58 36.89 293 36.18C372.7 34.68 405.92 133.98 408.48 173.46C412.17 174.57 441.68 183.41 445.37 184.52C436.87 63.49 361.64 0 289.68 0C222.15 0 159.82 49.09 134.7 121.05C100.4 217.01 122.91 309.24 164.97 383.05C161.3 387.86 159.08 396.33 159.82 404.43C160.54 426.57 179.35 445.02 201.88 445.02Z" id="axngwvFLu"></path></defs><g><g><g><use xlink:href="#axngwvFLu" opacity="1" fill="#4e93e6" fill-opacity="1"></use><g><use xlink:href="#axngwvFLu" opacity="1" fill-opacity="0" stroke="#000000" stroke-width="1" stroke-opacity="0"></use></g></g></g></g></svg>