<svg xmlns="http://www.w3.org/2000/svg" xmlns:xlink="http://www.w3.org/1999/xlink" style="" version="1.1" xml:space="preserve" width="101.48052215576172" height="101.55844116210938"><rect id="backgroundrect" width="100%" height="100%" x="0" y="0" fill="none" stroke="none" class="" style=""/><g class="currentLayer" style=""><title>Layer 1</title><g id="svg_1" class=""><g id="svg_2"><g id="svg_3"><circle cx="50.55228042602539" cy="50.55228042602539" r="50" style="fill:#F0DB4F;" id="svg_4"/></g></g><g id="Layer_1_1_"><g id="svg_5"><g id="svg_6"><path d="M34.95227982997894,31.1522797703743 h8.7 v24.5 c0,11 -5.3,14.9 -13.7,14.9 c-2.1,0 -4.7,-0.3000000000000003 -6.4,-0.9 l1,-7.1 c1.2,0.4 2.8,0.7000000000000006 4.5,0.7000000000000006 c3.7,0 6,-1.7000000000000002 6,-7.6 L34.95227982997894,31.1522797703743 L34.95227982997894,31.1522797703743 z" style="fill:#323330;" id="svg_7"/><path d="M51.35227982997894,60.952279770374304 c2.3,1.2 6,2.4 9.7,2.4 c4,0 6.1,-1.7000000000000002 6.1,-4.3 c0,-2.4 -1.8,-3.8 -6.5,-5.4 c-6.4,-2.3 -10.7,-5.9 -10.7,-11.6 C49.95227982997894,35.5522797703743 55.55227982997894,30.552279770374298 64.65227982997894,30.552279770374298 c4.4,0 7.6,0.9 9.9,2 l-2,7 c-1.5,-0.7000000000000006 -4.3,-1.8 -8,-1.8 c-3.8,0 -5.6,1.8 -5.6,3.7 c0,2.5 2.1,3.6 7.2,5.5 c6.8,2.5 10,6.1 10,11.6 c0,6.5 -4.9,12 -15.6,12 c-4.4,0 -8.8,-1.2 -11,-2.4 L51.35227982997894,60.952279770374304 z" style="fill:#323330;" id="svg_8"/></g></g></g></g></g></svg>