<?xml version="1.0" encoding="UTF-8" standalone="no"?>
<!DOCTYPE svg PUBLIC "-//W3C//DTD SVG 1.1//EN" "http://www.w3.org/Graphics/SVG/1.1/DTD/svg11.dtd">
<svg version="1.1" xmlns="http://www.w3.org/2000/svg" xmlns:xlink="http://www.w3.org/1999/xlink" preserveAspectRatio="xMidYMid meet" viewBox="0 0 640 640" width="640" height="640"><defs><path d="M619.84 639.97C630.88 639.97 639.84 631.01 639.84 619.97C630.5 410.45 688.96 189.36 470.82 189.36C428.88 189.36 395.46 203.68 371.38 222.61C371.38 183.65 329.28 205.2 232.08 199.41C221.04 199.41 212.08 208.37 212.08 219.41C220.13 597.17 194.1 639.97 232.08 639.97C244.5 639.97 343.92 639.97 356.34 639.97C392.42 639.97 369.46 589.09 376.34 421.63C376.34 352.45 396.34 338.91 430.9 338.91C469.14 338.91 475.57 365.47 475.57 424.99C482.42 589.44 459.62 640 495.57 640C498.32 640 622.56 639.97 619.84 639.97ZM336.34 599.97C330.73 599.97 302.64 599.97 252.08 599.97L252.08 239.41L331.38 239.41C331.38 260.18 331.38 271.72 331.38 274.03C331.38 293.23 360.64 302.67 370.82 283.36C383.94 258.45 418.02 229.36 470.82 229.36C564.88 229.36 599.84 275.57 599.84 399.92C599.84 413.26 599.84 479.95 599.84 600C549.28 600 521.19 600 515.57 600C515.57 409.49 535.73 298.91 430.9 298.91C311.14 298.91 336.34 430.59 336.34 599.97Z" id="bw0gLxf6A"></path><path d="M9.76 620C9.76 631.04 18.72 640 29.76 640C42.2 640 141.72 640 154.16 640C192.02 640 166.1 597.73 174.16 219.44C174.16 184.91 124 205.28 29.76 199.44C-8.11 199.44 17.81 241.71 9.76 620ZM134.16 600L49.76 600L49.76 239.44L134.16 239.44L134.16 600Z" id="b1maDbCl9T"></path><path d="M91.89 184.77C213.09 184.77 214.05 0 91.89 0C-30.14 0 -29.39 184.77 91.89 184.77ZM91.89 40C161.14 40 160.26 144.77 91.89 144.77C23.41 144.77 22.77 40 91.89 40Z" id="apcFgdu9"></path></defs><g><g><g><use xlink:href="#bw0gLxf6A" opacity="1" fill="#ffffff" fill-opacity="1"></use><g><use xlink:href="#bw0gLxf6A" opacity="1" fill-opacity="0" stroke="#000000" stroke-width="1" stroke-opacity="0"></use></g></g><g><use xlink:href="#b1maDbCl9T" opacity="1" fill="#ffffff" fill-opacity="1"></use><g><use xlink:href="#b1maDbCl9T" opacity="1" fill-opacity="0" stroke="#000000" stroke-width="1" stroke-opacity="0"></use></g></g><g><use xlink:href="#apcFgdu9" opacity="1" fill="#ffffff" fill-opacity="1"></use><g><use xlink:href="#apcFgdu9" opacity="1" fill-opacity="0" stroke="#000000" stroke-width="1" stroke-opacity="0"></use></g></g></g></g></svg>