<?xml version="1.0" encoding="UTF-8" standalone="no"?>
<!DOCTYPE svg PUBLIC "-//W3C//DTD SVG 1.1//EN" "http://www.w3.org/Graphics/SVG/1.1/DTD/svg11.dtd">
<svg version="1.1" xmlns="http://www.w3.org/2000/svg" xmlns:xlink="http://www.w3.org/1999/xlink" preserveAspectRatio="xMidYMid meet" viewBox="0 0 640 487" width="640" height="487"><defs><path d="M56.85 0C25.91 0 0.66 25.22 0.66 56.19C0.66 93.65 0.66 393.35 0.66 430.81C0.66 461.68 25.79 487 56.85 487C109.55 487 531.11 487 583.81 487C614.68 487 640 461.87 640 430.81C640 393.35 640 93.65 640 56.19C640 25.32 614.87 0 583.81 0C478.42 0 109.55 0 56.85 0ZM321.52 291.99L64.79 37.46L576.05 37.46L321.52 291.99ZM38.12 63.77L218.53 242.64L38.12 423.05L38.12 63.77ZM245.14 269.01C283.09 306.64 304.18 327.54 308.39 331.72C315.71 338.98 327.53 338.96 334.82 331.67C338.94 327.56 359.49 307 396.5 269.99L576.05 449.54L64.61 449.54L245.14 269.01ZM422.99 243.5L602.54 63.95L602.54 423.05L422.99 243.5Z" id="e3af6mAxQt"></path></defs><g><g><g><use xlink:href="#e3af6mAxQt" opacity="1" fill="#ffffff" fill-opacity="1"></use><g><use xlink:href="#e3af6mAxQt" opacity="1" fill-opacity="0" stroke="#000000" stroke-width="1" stroke-opacity="0"></use></g></g></g></g></svg>