<?xml version="1.0" encoding="UTF-8" standalone="no"?>
<!DOCTYPE svg PUBLIC "-//W3C//DTD SVG 1.1//EN" "http://www.w3.org/Graphics/SVG/1.1/DTD/svg11.dtd">
<svg version="1.1" xmlns="http://www.w3.org/2000/svg" xmlns:xlink="http://www.w3.org/1999/xlink" preserveAspectRatio="xMidYMid meet" viewBox="0 0 640 640" width="640" height="640"><defs><path d="M394.66 10.67C394.66 16.55 399.44 21.33 405.32 21.33C522.96 21.33 618.66 117.03 618.66 234.67C618.66 240.56 623.44 245.33 629.33 245.33C635.22 245.33 639.99 240.56 639.99 234.67C639.99 105.27 534.72 0 405.32 0C399.44 0 394.66 4.78 394.66 10.67Z" id="bTtikgB7"></path><path d="M394.66 74.67C394.66 80.55 399.44 85.33 405.32 85.33C487.67 85.33 554.66 152.32 554.66 234.67C554.66 240.56 559.44 245.33 565.33 245.33C571.22 245.33 575.99 240.56 575.99 234.67C575.99 140.57 499.44 64 405.32 64C399.44 64 394.66 68.78 394.66 74.67Z" id="fG8cuAaGh"></path><path d="M394.66 138.67C394.66 144.55 399.44 149.33 405.32 149.33C452.38 149.33 490.66 187.62 490.66 234.67C490.66 240.56 495.44 245.33 501.32 245.33C507.22 245.33 511.99 240.56 511.99 234.67C511.99 175.85 464.14 128 405.32 128C399.44 128 394.66 132.78 394.66 138.67Z" id="d6oiYbozp6"></path><path d="M492.15 379.12C465.6 369.16 435.44 375.59 415.23 395.52C411.86 398.89 384.89 425.8 381.52 429.17C310.82 387.48 251.75 328.54 209.97 257.98C213.35 254.61 240.34 227.68 243.71 224.31C263.66 204.18 270.1 174.05 260.13 147.56C249.9 120.19 242.76 91.64 238.92 62.57C233.81 26.54 202.61 -0.14 166.14 0C156.81 0 82.15 0 72.82 0C70.64 0 68.47 0.11 66.31 0.3C46.93 2.05 29.39 11.23 16.92 26.15C4.45 41.07 -1.46 59.95 0.31 79.48C10.64 176.63 44.24 271.32 97.42 353.24C145.7 429.06 211.37 494.61 287.26 542.73C369.04 595.66 463.47 629.19 560.57 639.72C562.77 639.91 564.97 640 567.19 640C567.26 640 567.32 640 567.39 640C607.59 639.83 640.14 607.07 639.98 566.99C639.98 557.69 639.98 483.29 639.98 473.99C640.82 437.11 613.9 405.43 577.21 400.27C548.18 396.45 519.56 389.33 492.15 379.12ZM618.65 473.87C618.65 483.19 618.65 557.73 618.65 567.04C618.75 595.4 595.73 618.56 567.32 618.68C565.66 618.62 564.06 618.62 562.65 618.49C469.06 608.33 377.84 575.95 298.76 524.77C225.42 478.25 162.02 414.98 115.36 341.7C63.96 262.51 31.51 171.05 21.53 77.39C20.3 63.71 24.47 50.38 33.29 39.83C42.11 29.28 54.52 22.79 68.23 21.55C69.76 21.41 71.28 21.33 72.82 21.33C82.16 21.33 156.9 21.33 166.24 21.33C166.41 21.33 166.58 21.33 166.75 21.33C192.31 21.33 214.21 40.27 217.78 65.46C221.82 96.02 229.34 126.17 240.15 155.06C247.2 173.79 242.64 195.08 228.6 209.26C224.64 213.2 193.04 244.74 189.09 248.68C185.67 252.09 184.97 257.34 187.35 261.52C232.55 340.88 298.48 406.67 377.98 451.78C382.17 454.16 387.39 453.43 390.78 450.05C394.73 446.11 426.3 414.61 430.25 410.67C444.51 396.6 465.88 392.07 484.67 399.11C513.6 409.88 543.8 417.4 574.32 421.41C600.24 425.06 619.3 447.49 618.65 473.6C618.65 473.69 618.65 473.78 618.65 473.87Z" id="dkuyvQuKr"></path><path d="M72.82 42.67C71.92 42.67 71.04 42.71 70.15 42.8C59.29 43.78 52.64 49.94 49.65 53.52C47.25 56.38 41.77 64.21 42.73 74.97C46.76 112.8 54.06 149.61 64.44 184.39C65.82 189.01 70.06 192 74.66 192C75.67 192 76.69 191.86 77.72 191.56C83.36 189.87 86.57 183.93 84.88 178.29C74.88 144.77 67.84 109.25 63.97 72.89C63.72 70.18 65.48 67.84 66.03 67.18C66.9 66.14 68.85 64.33 72.82 64C81.54 64 151.26 64 159.98 64C159.99 64 159.99 64 159.99 64C165.88 64 170.66 59.24 170.66 53.35C170.67 47.46 165.89 42.67 160 42.67C142.56 42.67 81.54 42.67 72.82 42.67Z" id="b27IE69MsV"></path><path d="M575.99 480C575.99 488.71 575.98 558.33 575.98 567.03C575.99 569.43 575.07 571.69 573.4 573.38C571.72 575.06 569.51 575.99 567.39 576C567.3 576 566.51 575.98 566.41 575.98C529.97 572.02 494.74 565 461.73 555.12C456.11 553.42 450.15 556.63 448.45 562.27C446.75 567.92 449.96 573.86 455.61 575.55C489.86 585.82 526.37 593.09 564.3 597.21C565.18 597.29 566.96 597.34 567.21 597.34C575.29 597.3 582.86 594.14 588.55 588.41C594.23 582.67 597.35 575.05 597.32 566.99C597.32 558.29 597.32 488.7 597.33 480C597.33 474.12 592.55 469.34 586.66 469.34C580.77 469.34 575.99 474.12 575.99 480Z" id="clBAFFbJ"></path></defs><g><g><g><use xlink:href="#bTtikgB7" opacity="1" fill="#ffffff" fill-opacity="1"></use><g><use xlink:href="#bTtikgB7" opacity="1" fill-opacity="0" stroke="#000000" stroke-width="1" stroke-opacity="0"></use></g></g><g><use xlink:href="#fG8cuAaGh" opacity="1" fill="#ffffff" fill-opacity="1"></use><g><use xlink:href="#fG8cuAaGh" opacity="1" fill-opacity="0" stroke="#000000" stroke-width="1" stroke-opacity="0"></use></g></g><g><use xlink:href="#d6oiYbozp6" opacity="1" fill="#ffffff" fill-opacity="1"></use><g><use xlink:href="#d6oiYbozp6" opacity="1" fill-opacity="0" stroke="#000000" stroke-width="1" stroke-opacity="0"></use></g></g><g><use xlink:href="#dkuyvQuKr" opacity="1" fill="#ffffff" fill-opacity="1"></use><g><use xlink:href="#dkuyvQuKr" opacity="1" fill-opacity="0" stroke="#000000" stroke-width="1" stroke-opacity="0"></use></g></g><g><use xlink:href="#b27IE69MsV" opacity="1" fill="#ffffff" fill-opacity="1"></use><g><use xlink:href="#b27IE69MsV" opacity="1" fill-opacity="0" stroke="#000000" stroke-width="1" stroke-opacity="0"></use></g></g><g><use xlink:href="#clBAFFbJ" opacity="1" fill="#ffffff" fill-opacity="1"></use><g><use xlink:href="#clBAFFbJ" opacity="1" fill-opacity="0" stroke="#000000" stroke-width="1" stroke-opacity="0"></use></g></g></g></g></svg>