<svg xmlns="http://www.w3.org/2000/svg" xmlns:xlink="http://www.w3.org/1999/xlink" version="1.1" style="enable-background:new 0 0 512 512;" xml:space="preserve" width="512" height="512"><rect id="backgroundrect" width="100%" height="100%" x="0" y="0" fill="none" stroke="none"/>

















<g class="currentLayer" style=""><title>Layer 1</title><path style="" d="M512,256c0,23.155-3.072,45.599-8.84,66.936c-13.479,49.894-41.66,93.748-79.621,126.631  C378.64,488.469,320.073,512,256,512C114.615,512,0,397.385,0,256S114.615,0,256,0S512,114.615,512,256z" id="svg_1" class="selected" fill-opacity="1" fill="#4e93e6"/><g id="svg_2">
	<path style="fill:#F2F2F2;" d="M503.16,322.936c-13.479,49.894-41.66,93.748-79.621,126.631c-3.709,0.199-7.586,0.293-11.609,0.293   c-53.154,0-82.693-33.217-97.374-58.138l48.191-28.954c0,0,16.394,34.837,47.125,34.837c30.741,0,43.039-10.25,43.039-33.813   c0-28.693-99.391-38.933-114.761-88.116c-15.37-49.183,5.12-118.868,76.852-113.737c44.826,3.197,70.04,25.213,82.651,41.273   l-47.815,34.544c-10.25-29.706-52.255-29.706-60.458-5.12c-8.192,24.597,19.466,38.933,62.506,53.279   C473.997,293.282,491.781,306.876,503.16,322.936z" id="svg_3"/>
	<polygon style="fill:#F2F2F2;" points="300.943,169.786 83.106,169.786 83.106,221.202 162.935,221.202 162.935,444.45    221.115,444.45 221.115,221.202 300.943,221.202  " id="svg_4"/>
</g><g id="svg_5">
</g><g id="svg_6">
</g><g id="svg_7">
</g><g id="svg_8">
</g><g id="svg_9">
</g><g id="svg_10">
</g><g id="svg_11">
</g><g id="svg_12">
</g><g id="svg_13">
</g><g id="svg_14">
</g><g id="svg_15">
</g><g id="svg_16">
</g><g id="svg_17">
</g><g id="svg_18">
</g><g id="svg_19">
</g></g></svg>