<?xml version="1.0" encoding="UTF-8" standalone="no"?>
<!DOCTYPE svg PUBLIC "-//W3C//DTD SVG 1.1//EN" "http://www.w3.org/Graphics/SVG/1.1/DTD/svg11.dtd">
<svg version="1.1" xmlns="http://www.w3.org/2000/svg" xmlns:xlink="http://www.w3.org/1999/xlink" preserveAspectRatio="xMidYMid meet" viewBox="0 0 669 560" width="669" height="560"><defs><path d="M597.14 18.53C589.83 18.53 582.09 20.07 574.13 23.11C519.96 43.79 86.56 209.23 32.38 229.91C3.63 240.88 -0.24 257.35 0.01 266.18C0.26 275.02 5.06 291.24 34.39 300.57C34.56 300.63 34.74 300.68 34.91 300.73C42.4 302.87 79.86 313.59 147.29 332.89C183.75 437.15 204.01 495.08 208.06 506.67C216.34 530.36 234.94 545.07 256.6 545.07C270.26 545.07 283.69 539.35 295.45 528.53C300.08 524.26 323.25 502.93 364.96 464.53C425.45 513.24 459.05 540.3 465.77 545.71C465.78 545.72 465.8 545.72 465.81 545.73C465.9 545.81 466.67 546.43 466.76 546.5C466.85 546.57 466.94 546.65 467.03 546.71C478.24 555.41 490.47 560 502.42 560C502.42 560 502.42 560 502.42 560C525.77 560 544.36 542.72 549.77 515.98C558.65 472.15 629.66 121.51 638.53 77.68C642.1 60.09 639.11 44.35 630.12 33.35C622.3 23.79 610.59 18.53 597.14 18.53ZM184.88 326.78L401.68 216.02C320.68 302.09 275.68 349.9 266.68 359.46C264.47 361.81 262.91 364.69 262.13 367.82C260.4 374.85 251.72 409.99 236.1 473.26L184.88 326.78ZM270.04 500.94C269.15 501.77 268.24 502.51 267.34 503.18C268.95 496.66 277 464.06 291.49 405.37L335.42 440.75C300.55 472.85 278.76 492.92 270.04 500.94ZM513.02 508.54C512.16 512.73 509.43 522.5 502.42 522.5C498.95 522.5 494.59 520.61 490.14 517.17C478.71 507.98 387.32 434.39 375.9 425.19C375.88 425.18 375.86 425.16 375.84 425.15C371.31 421.5 348.66 403.26 307.87 370.42C425 245.96 490.08 176.81 503.09 162.98C509.34 156.34 509.91 146.17 504.43 138.88C498.95 131.58 489.03 129.29 480.91 133.44C459.5 144.37 352.47 199.05 159.82 297.47L45.92 264.88C370.87 140.84 551.4 71.93 587.5 58.14C592.08 56.4 595.27 56.03 597.14 56.03C598.29 56.03 600.33 56.17 601.09 57.1C602.08 58.31 603.35 62.46 601.78 70.24C584.03 157.9 521.89 464.71 513.02 508.54Z" id="b27trQEH2v"></path></defs><g><g><g><use xlink:href="#b27trQEH2v" opacity="1" fill="#ffffff" fill-opacity="1"></use><g><use xlink:href="#b27trQEH2v" opacity="1" fill-opacity="0" stroke="#000000" stroke-width="1" stroke-opacity="0"></use></g></g></g></g></svg>