<?xml version="1.0" encoding="UTF-8" standalone="no"?>
<!DOCTYPE svg PUBLIC "-//W3C//DTD SVG 1.1//EN" "http://www.w3.org/Graphics/SVG/1.1/DTD/svg11.dtd">
<svg version="1.1" xmlns="http://www.w3.org/2000/svg" xmlns:xlink="http://www.w3.org/1999/xlink" preserveAspectRatio="xMidYMid meet" viewBox="0 0 640 640" width="640" height="640"><defs><path d="M1.85 406.88C4.25 434.25 10.98 459.54 22.27 483.74C34.15 508.91 45.92 526.13 65.49 546.66C96 578.67 132.38 601.52 178.73 617.77C217.64 631.34 257.87 638.3 306.86 639.77C416.98 643.19 513.28 608.73 575.24 543.61C613.19 503.77 634.68 457.71 639.49 406.27C640.21 397.72 640.69 322.33 640.69 196.35C640.69 183.26 640.69 117.81 640.69 0L526.01 0L411.33 0L411.33 91.64L411.33 183.28C444.47 183.35 462.89 183.39 466.57 183.4C528.65 183.65 524.21 183.52 524.21 185.11C524.21 185.72 505.84 211.38 483.38 241.93C460.93 272.48 415.53 334.3 382.51 379.39C349.49 424.35 321.87 461.74 321.39 462.23C320.67 462.96 297.37 432.3 265.67 389.04C235.65 348.11 189.66 285.55 163.6 249.87C137.42 214.31 116.41 184.75 116.65 184.26C117.01 183.77 142.59 183.28 173.69 183.28C177.44 183.28 196.22 183.28 230.01 183.28L230.01 91.64L230.01 0L115.33 0L0.65 0L0.65 196.35C0.97 330.84 1.37 401.02 1.85 406.88Z" id="afSGNIvhO"></path></defs><g><g><g><use xlink:href="#afSGNIvhO" opacity="1" fill="#ffffff" fill-opacity="1"></use><g><use xlink:href="#afSGNIvhO" opacity="1" fill-opacity="0" stroke="#000000" stroke-width="1" stroke-opacity="0"></use></g></g></g></g></svg>